<svg width="182" height="42" viewBox="0 0 182 42" fill="none" xmlns="http://www.w3.org/2000/svg">
<rect y="39" width="92.6176" height="3" rx="1.5" fill="black"/>
<rect x="95.3824" y="39" width="45.6176" height="3" rx="1.5" fill="#B7B7B7"/>
<path d="M27.8864 15.2955H24.3409C24.2045 14.5379 23.9508 13.8712 23.5795 13.2955C23.2083 12.7197 22.7538 12.2311 22.2159 11.8295C21.678 11.428 21.0758 11.125 20.4091 10.9205C19.75 10.7159 19.0492 10.6136 18.3068 10.6136C16.9659 10.6136 15.7652 10.9508 14.7045 11.625C13.6515 12.2992 12.8182 13.2879 12.2045 14.5909C11.5985 15.8939 11.2955 17.4848 11.2955 19.3636C11.2955 21.2576 11.5985 22.8561 12.2045 24.1591C12.8182 25.4621 13.6553 26.447 14.7159 27.1136C15.7765 27.7803 16.9697 28.1136 18.2955 28.1136C19.0303 28.1136 19.7273 28.0152 20.3864 27.8182C21.053 27.6136 21.6553 27.3144 22.1932 26.9205C22.7311 26.5265 23.1856 26.0455 23.5568 25.4773C23.9356 24.9015 24.197 24.2424 24.3409 23.5L27.8864 23.5114C27.697 24.6553 27.3295 25.7083 26.7841 26.6705C26.2462 27.625 25.553 28.4508 24.7045 29.1477C23.8636 29.8371 22.9015 30.3712 21.8182 30.75C20.7348 31.1288 19.553 31.3182 18.2727 31.3182C16.2576 31.3182 14.4621 30.8409 12.8864 29.8864C11.3106 28.9242 10.0682 27.5492 9.15909 25.7614C8.25758 23.9735 7.80682 21.8409 7.80682 19.3636C7.80682 16.8788 8.26136 14.7462 9.17045 12.9659C10.0795 11.178 11.322 9.80682 12.8977 8.85227C14.4735 7.89015 16.2652 7.40909 18.2727 7.40909C19.5076 7.40909 20.6591 7.58712 21.7273 7.94318C22.803 8.29167 23.7689 8.80682 24.625 9.48864C25.4811 10.1629 26.1894 10.9886 26.75 11.9659C27.3106 12.9356 27.6894 14.0455 27.8864 15.2955ZM36.8949 31.3864C35.7888 31.3864 34.7888 31.1818 33.8949 30.7727C33.0009 30.3561 32.2926 29.7538 31.7699 28.9659C31.2547 28.178 30.9972 27.2121 30.9972 26.0682C30.9972 25.0833 31.1866 24.2727 31.5653 23.6364C31.9441 23 32.4555 22.4962 33.0994 22.125C33.7434 21.7538 34.4631 21.4735 35.2585 21.2841C36.054 21.0947 36.8646 20.9508 37.6903 20.8523C38.7358 20.7311 39.5843 20.6326 40.2358 20.5568C40.8873 20.4735 41.3608 20.3409 41.6562 20.1591C41.9517 19.9773 42.0994 19.6818 42.0994 19.2727V19.1932C42.0994 18.2008 41.8191 17.4318 41.2585 16.8864C40.7055 16.3409 39.8797 16.0682 38.7812 16.0682C37.6373 16.0682 36.7358 16.322 36.0767 16.8295C35.4252 17.3295 34.9744 17.8864 34.7244 18.5L31.5312 17.7727C31.91 16.7121 32.4631 15.8561 33.1903 15.2045C33.9252 14.5455 34.7699 14.0682 35.7244 13.7727C36.679 13.4697 37.6828 13.3182 38.7358 13.3182C39.4328 13.3182 40.1714 13.4015 40.9517 13.5682C41.7396 13.7273 42.4744 14.0227 43.1562 14.4545C43.8456 14.8864 44.41 15.5038 44.8494 16.3068C45.2888 17.1023 45.5085 18.1364 45.5085 19.4091V31H42.1903V28.6136H42.054C41.8343 29.053 41.5047 29.4848 41.0653 29.9091C40.6259 30.3333 40.0616 30.6856 39.3722 30.9659C38.6828 31.2462 37.857 31.3864 36.8949 31.3864ZM37.6335 28.6591C38.5729 28.6591 39.3759 28.4735 40.0426 28.1023C40.7169 27.7311 41.2282 27.2462 41.5767 26.6477C41.9328 26.0417 42.1108 25.3939 42.1108 24.7045V22.4545C41.9896 22.5758 41.7547 22.6894 41.4062 22.7955C41.0653 22.8939 40.6752 22.9811 40.2358 23.0568C39.7964 23.125 39.3684 23.1894 38.9517 23.25C38.535 23.303 38.1866 23.3485 37.9062 23.3864C37.2472 23.4697 36.6449 23.6098 36.0994 23.8068C35.5616 24.0038 35.1297 24.2879 34.804 24.6591C34.4858 25.0227 34.3267 25.5076 34.3267 26.1136C34.3267 26.9545 34.6373 27.5909 35.2585 28.0227C35.8797 28.447 36.6714 28.6591 37.6335 28.6591ZM63.1136 17.8068L60.0341 18.3523C59.9053 17.9583 59.7008 17.5833 59.4205 17.2273C59.1477 16.8712 58.7765 16.5795 58.3068 16.3523C57.8371 16.125 57.25 16.0114 56.5455 16.0114C55.5833 16.0114 54.7803 16.2273 54.1364 16.6591C53.4924 17.0833 53.1705 17.6326 53.1705 18.3068C53.1705 18.8902 53.3864 19.3598 53.8182 19.7159C54.25 20.072 54.947 20.3636 55.9091 20.5909L58.6818 21.2273C60.2879 21.5985 61.4848 22.1705 62.2727 22.9432C63.0606 23.7159 63.4545 24.7197 63.4545 25.9545C63.4545 27 63.1515 27.9318 62.5455 28.75C61.947 29.5606 61.1098 30.197 60.0341 30.6591C58.9659 31.1212 57.7273 31.3523 56.3182 31.3523C54.3636 31.3523 52.7689 30.9356 51.5341 30.1023C50.2992 29.2614 49.5417 28.0682 49.2614 26.5227L52.5455 26.0227C52.75 26.8788 53.1705 27.5265 53.8068 27.9659C54.4432 28.3977 55.2727 28.6136 56.2955 28.6136C57.4091 28.6136 58.2992 28.3826 58.9659 27.9205C59.6326 27.4508 59.9659 26.8788 59.9659 26.2045C59.9659 25.6591 59.7614 25.2008 59.3523 24.8295C58.9508 24.4583 58.3333 24.178 57.5 23.9886L54.5455 23.3409C52.9167 22.9697 51.7121 22.3788 50.9318 21.5682C50.1591 20.7576 49.7727 19.7311 49.7727 18.4886C49.7727 17.4583 50.0606 16.5568 50.6364 15.7841C51.2121 15.0114 52.0076 14.4091 53.0227 13.9773C54.0379 13.5379 55.2008 13.3182 56.5114 13.3182C58.3977 13.3182 59.8826 13.7273 60.9659 14.5455C62.0492 15.3561 62.7652 16.4432 63.1136 17.8068ZM74.7131 31.3523C72.9934 31.3523 71.5123 30.9848 70.2699 30.25C69.035 29.5076 68.0805 28.4659 67.4062 27.125C66.7396 25.7765 66.4062 24.197 66.4062 22.3864C66.4062 20.5985 66.7396 19.0227 67.4062 17.6591C68.0805 16.2955 69.0199 15.2311 70.2244 14.4659C71.4366 13.7008 72.8532 13.3182 74.4744 13.3182C75.4593 13.3182 76.4138 13.4811 77.3381 13.8068C78.2623 14.1326 79.0919 14.6439 79.8267 15.3409C80.5616 16.0379 81.1411 16.9432 81.5653 18.0568C81.9896 19.1629 82.2017 20.5076 82.2017 22.0909V23.2955H68.3267V20.75H78.8722C78.8722 19.8561 78.6903 19.0644 78.3267 18.375C77.9631 17.678 77.4517 17.1288 76.7926 16.7273C76.1411 16.3258 75.3759 16.125 74.4972 16.125C73.5426 16.125 72.7093 16.3598 71.9972 16.8295C71.2926 17.2917 70.7472 17.8977 70.3608 18.6477C69.982 19.3902 69.7926 20.197 69.7926 21.0682V23.0568C69.7926 24.2235 69.9972 25.2159 70.4062 26.0341C70.8229 26.8523 71.4025 27.4773 72.1449 27.9091C72.8873 28.3333 73.7547 28.5455 74.7472 28.5455C75.3911 28.5455 75.9782 28.4545 76.5085 28.2727C77.0388 28.0833 77.4972 27.803 77.8835 27.4318C78.2699 27.0606 78.5653 26.6023 78.7699 26.0568L81.9858 26.6364C81.7282 27.5833 81.2661 28.4129 80.5994 29.125C79.9403 29.8295 79.1108 30.3788 78.1108 30.7727C77.1184 31.1591 75.9858 31.3523 74.7131 31.3523ZM107.406 13.8409C107.285 12.7652 106.785 11.9318 105.906 11.3409C105.027 10.7424 103.921 10.4432 102.588 10.4432C101.634 10.4432 100.808 10.5947 100.111 10.8977C99.4138 11.1932 98.8722 11.6023 98.4858 12.125C98.107 12.6402 97.9176 13.2273 97.9176 13.8864C97.9176 14.4394 98.0464 14.9167 98.304 15.3182C98.5691 15.7197 98.9138 16.0568 99.3381 16.3295C99.7699 16.5947 100.232 16.8182 100.724 17C101.217 17.1742 101.69 17.3182 102.145 17.4318L104.418 18.0227C105.16 18.2045 105.921 18.4508 106.702 18.7614C107.482 19.072 108.205 19.4811 108.872 19.9886C109.539 20.4962 110.077 21.125 110.486 21.875C110.902 22.625 111.111 23.5227 111.111 24.5682C111.111 25.8864 110.77 27.0568 110.088 28.0795C109.414 29.1023 108.433 29.9091 107.145 30.5C105.865 31.0909 104.315 31.3864 102.497 31.3864C100.755 31.3864 99.2472 31.1098 97.9744 30.5568C96.7017 30.0038 95.7055 29.2197 94.9858 28.2045C94.2661 27.1818 93.8684 25.9697 93.7926 24.5682H97.3153C97.3835 25.4091 97.6563 26.1098 98.1335 26.6705C98.6184 27.2235 99.2358 27.6364 99.9858 27.9091C100.743 28.1742 101.573 28.3068 102.474 28.3068C103.467 28.3068 104.349 28.1515 105.122 27.8409C105.902 27.5227 106.516 27.0833 106.963 26.5227C107.41 25.9545 107.634 25.2917 107.634 24.5341C107.634 23.8447 107.437 23.2803 107.043 22.8409C106.656 22.4015 106.13 22.0379 105.463 21.75C104.804 21.4621 104.058 21.2083 103.224 20.9886L100.474 20.2386C98.6108 19.7311 97.1335 18.9848 96.0426 18C94.9593 17.0152 94.4176 15.7121 94.4176 14.0909C94.4176 12.75 94.7813 11.5795 95.5085 10.5795C96.2358 9.57954 97.2206 8.80303 98.4631 8.25C99.7055 7.68939 101.107 7.40909 102.668 7.40909C104.243 7.40909 105.634 7.68561 106.838 8.23864C108.05 8.79167 109.005 9.55303 109.702 10.5227C110.399 11.4848 110.762 12.5909 110.793 13.8409H107.406ZM123.182 13.5455V16.2727H113.648V13.5455H123.182ZM116.205 9.36364H119.602V25.875C119.602 26.5341 119.701 27.0303 119.898 27.3636C120.095 27.6894 120.348 27.9129 120.659 28.0341C120.977 28.1477 121.322 28.2045 121.693 28.2045C121.966 28.2045 122.205 28.1856 122.409 28.1477C122.614 28.1098 122.773 28.0795 122.886 28.0568L123.5 30.8636C123.303 30.9394 123.023 31.0152 122.659 31.0909C122.295 31.1742 121.841 31.2197 121.295 31.2273C120.402 31.2424 119.568 31.0833 118.795 30.75C118.023 30.4167 117.398 29.9015 116.92 29.2045C116.443 28.5076 116.205 27.6326 116.205 26.5795V9.36364ZM137.997 23.7614V13.5455H141.406V31H138.065V27.9773H137.884C137.482 28.9091 136.838 29.6856 135.952 30.3068C135.073 30.9205 133.978 31.2273 132.668 31.2273C131.546 31.2273 130.554 30.9811 129.69 30.4886C128.834 29.9886 128.16 29.25 127.668 28.2727C127.183 27.2955 126.94 26.0871 126.94 24.6477V13.5455H130.338V24.2386C130.338 25.428 130.668 26.375 131.327 27.0795C131.986 27.7841 132.842 28.1364 133.895 28.1364C134.531 28.1364 135.164 27.9773 135.793 27.6591C136.429 27.3409 136.955 26.8598 137.372 26.2159C137.796 25.572 138.005 24.7538 137.997 23.7614ZM152.506 31.3409C151.097 31.3409 149.839 30.9811 148.733 30.2614C147.634 29.5341 146.771 28.5 146.142 27.1591C145.521 25.8106 145.21 24.1932 145.21 22.3068C145.21 20.4205 145.525 18.8068 146.153 17.4659C146.79 16.125 147.661 15.0985 148.767 14.3864C149.873 13.6742 151.127 13.3182 152.528 13.3182C153.612 13.3182 154.483 13.5 155.142 13.8636C155.809 14.2197 156.324 14.6364 156.688 15.1136C157.059 15.5909 157.347 16.0114 157.551 16.375H157.756V7.72727H161.153V31H157.835V28.2841H157.551C157.347 28.6553 157.051 29.0795 156.665 29.5568C156.286 30.0341 155.763 30.4508 155.097 30.8068C154.43 31.1629 153.566 31.3409 152.506 31.3409ZM153.256 28.4432C154.233 28.4432 155.059 28.1856 155.733 27.6705C156.415 27.1477 156.93 26.4242 157.278 25.5C157.634 24.5758 157.812 23.5 157.812 22.2727C157.812 21.0606 157.638 20 157.29 19.0909C156.941 18.1818 156.43 17.4735 155.756 16.9659C155.081 16.4583 154.248 16.2045 153.256 16.2045C152.233 16.2045 151.381 16.4697 150.699 17C150.017 17.5303 149.502 18.2538 149.153 19.1705C148.813 20.0871 148.642 21.1212 148.642 22.2727C148.642 23.4394 148.816 24.4886 149.165 25.4205C149.513 26.3523 150.028 27.0909 150.71 27.6364C151.4 28.1742 152.248 28.4432 153.256 28.4432ZM168.151 37.5455C167.643 37.5455 167.181 37.5038 166.764 37.4205C166.348 37.3447 166.037 37.2614 165.832 37.1705L166.651 34.3864C167.272 34.553 167.825 34.625 168.31 34.6023C168.795 34.5795 169.223 34.3977 169.594 34.0568C169.973 33.7159 170.306 33.1591 170.594 32.3864L171.014 31.2273L164.628 13.5455H168.264L172.685 27.0909H172.866L177.287 13.5455H180.935L173.741 33.3295C173.408 34.2386 172.984 35.0076 172.469 35.6364C171.954 36.2727 171.34 36.75 170.628 37.0682C169.916 37.3864 169.09 37.5455 168.151 37.5455Z" fill="black"/>
</svg>
