<svg width="126" height="42" viewBox="0 0 126 42" fill="none" xmlns="http://www.w3.org/2000/svg">
<rect y="39" width="67" height="3" rx="1.5" fill="black"/>
<rect x="69" y="39" width="33" height="3" rx="1.5" fill="#B7B7B7"/>
<path d="M16.0909 31H8.55682V7.72727H16.3295C18.6098 7.72727 20.5682 8.19318 22.2045 9.125C23.8409 10.0492 25.0947 11.3788 25.9659 13.1136C26.8447 14.8409 27.2841 16.9129 27.2841 19.3295C27.2841 21.7538 26.8409 23.8371 25.9545 25.5795C25.0758 27.322 23.803 28.6629 22.1364 29.6023C20.4697 30.5341 18.4545 31 16.0909 31ZM12.0682 27.9318H15.8977C17.6705 27.9318 19.1439 27.5985 20.3182 26.9318C21.4924 26.2576 22.3712 25.2841 22.9545 24.0114C23.5379 22.7311 23.8295 21.1705 23.8295 19.3295C23.8295 17.5038 23.5379 15.9545 22.9545 14.6818C22.3788 13.4091 21.5189 12.4432 20.375 11.7841C19.2311 11.125 17.8106 10.7955 16.1136 10.7955H12.0682V27.9318ZM31.6506 31V7.72727H46.2415V10.75H35.1619V17.8409H45.4801V20.8523H35.1619V27.9773H46.3778V31H31.6506ZM63.625 13.8409C63.5038 12.7652 63.0038 11.9318 62.125 11.3409C61.2462 10.7424 60.1402 10.4432 58.8068 10.4432C57.8523 10.4432 57.0265 10.5947 56.3295 10.8977C55.6326 11.1932 55.0909 11.6023 54.7045 12.125C54.3258 12.6402 54.1364 13.2273 54.1364 13.8864C54.1364 14.4394 54.2652 14.9167 54.5227 15.3182C54.7879 15.7197 55.1326 16.0568 55.5568 16.3295C55.9886 16.5947 56.4508 16.8182 56.9432 17C57.4356 17.1742 57.9091 17.3182 58.3636 17.4318L60.6364 18.0227C61.3788 18.2045 62.1402 18.4508 62.9205 18.7614C63.7008 19.072 64.4242 19.4811 65.0909 19.9886C65.7576 20.4962 66.2955 21.125 66.7045 21.875C67.1212 22.625 67.3295 23.5227 67.3295 24.5682C67.3295 25.8864 66.9886 27.0568 66.3068 28.0795C65.6326 29.1023 64.6515 29.9091 63.3636 30.5C62.0833 31.0909 60.5341 31.3864 58.7159 31.3864C56.9735 31.3864 55.4659 31.1098 54.1932 30.5568C52.9205 30.0038 51.9242 29.2197 51.2045 28.2045C50.4848 27.1818 50.0871 25.9697 50.0114 24.5682H53.5341C53.6023 25.4091 53.875 26.1098 54.3523 26.6705C54.8371 27.2235 55.4545 27.6364 56.2045 27.9091C56.9621 28.1742 57.7917 28.3068 58.6932 28.3068C59.6856 28.3068 60.5682 28.1515 61.3409 27.8409C62.1212 27.5227 62.7348 27.0833 63.1818 26.5227C63.6288 25.9545 63.8523 25.2917 63.8523 24.5341C63.8523 23.8447 63.6553 23.2803 63.2614 22.8409C62.875 22.4015 62.3485 22.0379 61.6818 21.75C61.0227 21.4621 60.2765 21.2083 59.4432 20.9886L56.6932 20.2386C54.8295 19.7311 53.3523 18.9848 52.2614 18C51.178 17.0152 50.6364 15.7121 50.6364 14.0909C50.6364 12.75 51 11.5795 51.7273 10.5795C52.4545 9.57954 53.4394 8.80303 54.6818 8.25C55.9242 7.68939 57.3258 7.40909 58.8864 7.40909C60.4621 7.40909 61.8523 7.68561 63.0568 8.23864C64.2689 8.79167 65.2235 9.55303 65.9205 10.5227C66.6174 11.4848 66.9811 12.5909 67.0114 13.8409H63.625ZM75.0369 7.72727V31H71.5256V7.72727H75.0369ZM95.9006 15.0795C95.6809 14.3902 95.3854 13.7727 95.0142 13.2273C94.6506 12.6742 94.215 12.2045 93.7074 11.8182C93.1998 11.4242 92.6203 11.125 91.9688 10.9205C91.3248 10.7159 90.6165 10.6136 89.8438 10.6136C88.5331 10.6136 87.3513 10.9508 86.2983 11.625C85.2453 12.2992 84.4119 13.2879 83.7983 14.5909C83.1922 15.8864 82.8892 17.4735 82.8892 19.3523C82.8892 21.2386 83.196 22.8333 83.8097 24.1364C84.4233 25.4394 85.2642 26.428 86.3324 27.1023C87.4006 27.7765 88.6165 28.1136 89.9801 28.1136C91.2453 28.1136 92.3475 27.8561 93.2869 27.3409C94.2339 26.8258 94.965 26.0985 95.4801 25.1591C96.0028 24.2121 96.2642 23.0985 96.2642 21.8182L97.1733 21.9886H90.5142V19.0909H99.6619V21.7386C99.6619 23.6932 99.2453 25.3902 98.4119 26.8295C97.5862 28.2614 96.4422 29.3674 94.9801 30.1477C93.5256 30.928 91.8589 31.3182 89.9801 31.3182C87.8741 31.3182 86.0256 30.8333 84.4347 29.8636C82.8513 28.8939 81.6165 27.5189 80.7301 25.7386C79.8438 23.9508 79.4006 21.8295 79.4006 19.375C79.4006 17.5189 79.6581 15.8523 80.1733 14.375C80.6884 12.8977 81.4119 11.6439 82.3438 10.6136C83.2831 9.57576 84.3854 8.78409 85.6506 8.23864C86.9233 7.68561 88.3134 7.40909 89.821 7.40909C91.0786 7.40909 92.2491 7.5947 93.3324 7.96591C94.4233 8.33712 95.393 8.86364 96.2415 9.54545C97.0975 10.2273 97.8059 11.0379 98.3665 11.9773C98.9271 12.9091 99.3059 13.9432 99.5028 15.0795H95.9006ZM122.903 7.72727V31H119.676L107.847 13.9318H107.631V31H104.119V7.72727H107.369L119.21 24.8182H119.426V7.72727H122.903Z" fill="black"/>
</svg>
