<svg width="100" height="42" viewBox="0 0 100 42" fill="none" xmlns="http://www.w3.org/2000/svg">
<rect y="39" width="48" height="3" rx="1.5" fill="black"/>
<rect x="50" y="39" width="23" height="3" rx="1.5" fill="#B7B7B7"/>
<path d="M8.55682 7.72727H12.8182L20.2273 25.8182H20.5L27.9091 7.72727H32.1705V31H28.8295V14.1591H28.6136L21.75 30.9659H18.9773L12.1136 14.1477H11.8977V31H8.55682V7.72727ZM44.5256 31.3523C42.8059 31.3523 41.3248 30.9848 40.0824 30.25C38.8475 29.5076 37.893 28.4659 37.2188 27.125C36.5521 25.7765 36.2188 24.197 36.2188 22.3864C36.2188 20.5985 36.5521 19.0227 37.2188 17.6591C37.893 16.2955 38.8324 15.2311 40.0369 14.4659C41.2491 13.7008 42.6657 13.3182 44.2869 13.3182C45.2718 13.3182 46.2263 13.4811 47.1506 13.8068C48.0748 14.1326 48.9044 14.6439 49.6392 15.3409C50.3741 16.0379 50.9536 16.9432 51.3778 18.0568C51.8021 19.1629 52.0142 20.5076 52.0142 22.0909V23.2955H38.1392V20.75H48.6847C48.6847 19.8561 48.5028 19.0644 48.1392 18.375C47.7756 17.678 47.2642 17.1288 46.6051 16.7273C45.9536 16.3258 45.1884 16.125 44.3097 16.125C43.3551 16.125 42.5218 16.3598 41.8097 16.8295C41.1051 17.2917 40.5597 17.8977 40.1733 18.6477C39.7945 19.3902 39.6051 20.197 39.6051 21.0682V23.0568C39.6051 24.2235 39.8097 25.2159 40.2188 26.0341C40.6354 26.8523 41.215 27.4773 41.9574 27.9091C42.6998 28.3333 43.5672 28.5455 44.5597 28.5455C45.2036 28.5455 45.7907 28.4545 46.321 28.2727C46.8513 28.0833 47.3097 27.803 47.696 27.4318C48.0824 27.0606 48.3778 26.6023 48.5824 26.0568L51.7983 26.6364C51.5407 27.5833 51.0786 28.4129 50.4119 29.125C49.7528 29.8295 48.9233 30.3788 47.9233 30.7727C46.9309 31.1591 45.7983 31.3523 44.5256 31.3523ZM62.3182 31.3409C60.9091 31.3409 59.6515 30.9811 58.5455 30.2614C57.447 29.5341 56.5833 28.5 55.9545 27.1591C55.3333 25.8106 55.0227 24.1932 55.0227 22.3068C55.0227 20.4205 55.3371 18.8068 55.9659 17.4659C56.6023 16.125 57.4735 15.0985 58.5795 14.3864C59.6856 13.6742 60.9394 13.3182 62.3409 13.3182C63.4242 13.3182 64.2955 13.5 64.9545 13.8636C65.6212 14.2197 66.1364 14.6364 66.5 15.1136C66.8712 15.5909 67.1591 16.0114 67.3636 16.375H67.5682V7.72727H70.9659V31H67.6477V28.2841H67.3636C67.1591 28.6553 66.8636 29.0795 66.4773 29.5568C66.0985 30.0341 65.5758 30.4508 64.9091 30.8068C64.2424 31.1629 63.3788 31.3409 62.3182 31.3409ZM63.0682 28.4432C64.0455 28.4432 64.8712 28.1856 65.5455 27.6705C66.2273 27.1477 66.7424 26.4242 67.0909 25.5C67.447 24.5758 67.625 23.5 67.625 22.2727C67.625 21.0606 67.4508 20 67.1023 19.0909C66.7538 18.1818 66.2424 17.4735 65.5682 16.9659C64.8939 16.4583 64.0606 16.2045 63.0682 16.2045C62.0455 16.2045 61.1932 16.4697 60.5114 17C59.8295 17.5303 59.3144 18.2538 58.9659 19.1705C58.625 20.0871 58.4545 21.1212 58.4545 22.2727C58.4545 23.4394 58.6288 24.4886 58.9773 25.4205C59.3258 26.3523 59.8409 27.0909 60.5227 27.6364C61.2121 28.1742 62.0606 28.4432 63.0682 28.4432ZM75.8153 31V13.5455H79.2131V31H75.8153ZM77.5312 10.8523C76.9403 10.8523 76.4328 10.6553 76.0085 10.2614C75.5919 9.85985 75.3835 9.38257 75.3835 8.82954C75.3835 8.26894 75.5919 7.79167 76.0085 7.39773C76.4328 6.99621 76.9403 6.79545 77.5312 6.79545C78.1222 6.79545 78.6259 6.99621 79.0426 7.39773C79.4669 7.79167 79.679 8.26894 79.679 8.82954C79.679 9.38257 79.4669 9.85985 79.0426 10.2614C78.6259 10.6553 78.1222 10.8523 77.5312 10.8523ZM88.8636 31.3864C87.7576 31.3864 86.7576 31.1818 85.8636 30.7727C84.9697 30.3561 84.2614 29.7538 83.7386 28.9659C83.2235 28.178 82.9659 27.2121 82.9659 26.0682C82.9659 25.0833 83.1553 24.2727 83.5341 23.6364C83.9129 23 84.4242 22.4962 85.0682 22.125C85.7121 21.7538 86.4318 21.4735 87.2273 21.2841C88.0227 21.0947 88.8333 20.9508 89.6591 20.8523C90.7045 20.7311 91.553 20.6326 92.2045 20.5568C92.8561 20.4735 93.3295 20.3409 93.625 20.1591C93.9205 19.9773 94.0682 19.6818 94.0682 19.2727V19.1932C94.0682 18.2008 93.7879 17.4318 93.2273 16.8864C92.6742 16.3409 91.8485 16.0682 90.75 16.0682C89.6061 16.0682 88.7045 16.322 88.0455 16.8295C87.3939 17.3295 86.9432 17.8864 86.6932 18.5L83.5 17.7727C83.8788 16.7121 84.4318 15.8561 85.1591 15.2045C85.8939 14.5455 86.7386 14.0682 87.6932 13.7727C88.6477 13.4697 89.6515 13.3182 90.7045 13.3182C91.4015 13.3182 92.1402 13.4015 92.9205 13.5682C93.7083 13.7273 94.4432 14.0227 95.125 14.4545C95.8144 14.8864 96.3788 15.5038 96.8182 16.3068C97.2576 17.1023 97.4773 18.1364 97.4773 19.4091V31H94.1591V28.6136H94.0227C93.803 29.053 93.4735 29.4848 93.0341 29.9091C92.5947 30.3333 92.0303 30.6856 91.3409 30.9659C90.6515 31.2462 89.8258 31.3864 88.8636 31.3864ZM89.6023 28.6591C90.5417 28.6591 91.3447 28.4735 92.0114 28.1023C92.6856 27.7311 93.197 27.2462 93.5455 26.6477C93.9015 26.0417 94.0795 25.3939 94.0795 24.7045V22.4545C93.9583 22.5758 93.7235 22.6894 93.375 22.7955C93.0341 22.8939 92.6439 22.9811 92.2045 23.0568C91.7652 23.125 91.3371 23.1894 90.9205 23.25C90.5038 23.303 90.1553 23.3485 89.875 23.3864C89.2159 23.4697 88.6136 23.6098 88.0682 23.8068C87.5303 24.0038 87.0985 24.2879 86.7727 24.6591C86.4545 25.0227 86.2955 25.5076 86.2955 26.1136C86.2955 26.9545 86.6061 27.5909 87.2273 28.0227C87.8485 28.447 88.6402 28.6591 89.6023 28.6591Z" fill="black"/>
</svg>
