<svg width="155" height="42" viewBox="0 0 155 42" fill="none" xmlns="http://www.w3.org/2000/svg">
<rect y="39" width="76" height="3" rx="1.5" fill="black"/>
<rect x="78" y="39" width="37" height="3" rx="1.5" fill="#B7B7B7"/>
<path d="M10.5227 31H6.79545L15.1705 7.72727H19.2273L27.6023 31H23.875L17.2955 11.9545H17.1136L10.5227 31ZM11.1477 21.8864H23.2386V24.8409H11.1477V21.8864ZM30.9631 31V7.72727H34.3608V16.375H34.5653C34.7623 16.0114 35.0464 15.5909 35.4176 15.1136C35.7888 14.6364 36.304 14.2197 36.9631 13.8636C37.6222 13.5 38.4934 13.3182 39.5767 13.3182C40.9858 13.3182 42.2434 13.6742 43.3494 14.3864C44.4555 15.0985 45.3229 16.125 45.9517 17.4659C46.5881 18.8068 46.9062 20.4205 46.9062 22.3068C46.9062 24.1932 46.5919 25.8106 45.9631 27.1591C45.3343 28.5 44.4706 29.5341 43.3722 30.2614C42.2737 30.9811 41.0199 31.3409 39.6108 31.3409C38.5502 31.3409 37.6828 31.1629 37.0085 30.8068C36.3419 30.4508 35.8191 30.0341 35.4403 29.5568C35.0616 29.0795 34.7699 28.6553 34.5653 28.2841H34.2812V31H30.9631ZM34.2926 22.2727C34.2926 23.5 34.4706 24.5758 34.8267 25.5C35.1828 26.4242 35.6979 27.1477 36.3722 27.6705C37.0464 28.1856 37.8722 28.4432 38.8494 28.4432C39.8646 28.4432 40.7131 28.1742 41.3949 27.6364C42.0767 27.0909 42.5919 26.3523 42.9403 25.4205C43.2964 24.4886 43.4744 23.4394 43.4744 22.2727C43.4744 21.1212 43.3002 20.0871 42.9517 19.1705C42.6108 18.2538 42.0956 17.5303 41.4062 17C40.7244 16.4697 39.8722 16.2045 38.8494 16.2045C37.8646 16.2045 37.0312 16.4583 36.3494 16.9659C35.6752 17.4735 35.1638 18.1818 34.8153 19.0909C34.4669 20 34.2926 21.0606 34.2926 22.2727ZM58.0739 31.3523C56.4375 31.3523 55.0095 30.9773 53.7898 30.2273C52.5701 29.4773 51.6231 28.428 50.9489 27.0795C50.2746 25.7311 49.9375 24.1553 49.9375 22.3523C49.9375 20.5417 50.2746 18.9583 50.9489 17.6023C51.6231 16.2462 52.5701 15.1932 53.7898 14.4432C55.0095 13.6932 56.4375 13.3182 58.0739 13.3182C59.7102 13.3182 61.1383 13.6932 62.358 14.4432C63.5777 15.1932 64.5246 16.2462 65.1989 17.6023C65.8731 18.9583 66.2102 20.5417 66.2102 22.3523C66.2102 24.1553 65.8731 25.7311 65.1989 27.0795C64.5246 28.428 63.5777 29.4773 62.358 30.2273C61.1383 30.9773 59.7102 31.3523 58.0739 31.3523ZM58.0852 28.5C59.1458 28.5 60.0246 28.2197 60.7216 27.6591C61.4186 27.0985 61.9337 26.3523 62.267 25.4205C62.608 24.4886 62.7784 23.4621 62.7784 22.3409C62.7784 21.2273 62.608 20.2045 62.267 19.2727C61.9337 18.3333 61.4186 17.5795 60.7216 17.0114C60.0246 16.4432 59.1458 16.1591 58.0852 16.1591C57.017 16.1591 56.1307 16.4432 55.4261 17.0114C54.7292 17.5795 54.2102 18.3333 53.8693 19.2727C53.536 20.2045 53.3693 21.2273 53.3693 22.3409C53.3693 23.4621 53.536 24.4886 53.8693 25.4205C54.2102 26.3523 54.7292 27.0985 55.4261 27.6591C56.1307 28.2197 57.017 28.5 58.0852 28.5ZM81.0597 23.7614V13.5455H84.4688V31H81.1278V27.9773H80.946C80.5445 28.9091 79.9006 29.6856 79.0142 30.3068C78.1354 30.9205 77.0407 31.2273 75.7301 31.2273C74.6089 31.2273 73.6165 30.9811 72.7528 30.4886C71.8968 29.9886 71.2225 29.25 70.7301 28.2727C70.2453 27.2955 70.0028 26.0871 70.0028 24.6477V13.5455H73.4006V24.2386C73.4006 25.428 73.7301 26.375 74.3892 27.0795C75.0483 27.7841 75.9044 28.1364 76.9574 28.1364C77.5938 28.1364 78.2263 27.9773 78.8551 27.6591C79.4915 27.3409 80.018 26.8598 80.4347 26.2159C80.8589 25.572 81.0672 24.7538 81.0597 23.7614ZM97.1818 13.5455V16.2727H87.6477V13.5455H97.1818ZM90.2045 9.36364H93.6023V25.875C93.6023 26.5341 93.7008 27.0303 93.8977 27.3636C94.0947 27.6894 94.3485 27.9129 94.6591 28.0341C94.9773 28.1477 95.322 28.2045 95.6932 28.2045C95.9659 28.2045 96.2045 28.1856 96.4091 28.1477C96.6136 28.1098 96.7727 28.0795 96.8864 28.0568L97.5 30.8636C97.303 30.9394 97.0227 31.0152 96.6591 31.0909C96.2955 31.1742 95.8409 31.2197 95.2955 31.2273C94.4015 31.2424 93.5682 31.0833 92.7955 30.75C92.0227 30.4167 91.3977 29.9015 90.9205 29.2045C90.4432 28.5076 90.2045 27.6326 90.2045 26.5795V9.36364ZM109.682 7.72727H113.943L121.352 25.8182H121.625L129.034 7.72727H133.295V31H129.955V14.1591H129.739L122.875 30.9659H120.102L113.239 14.1477H113.023V31H109.682V7.72727ZM145.651 31.3523C143.931 31.3523 142.45 30.9848 141.207 30.25C139.973 29.5076 139.018 28.4659 138.344 27.125C137.677 25.7765 137.344 24.197 137.344 22.3864C137.344 20.5985 137.677 19.0227 138.344 17.6591C139.018 16.2955 139.957 15.2311 141.162 14.4659C142.374 13.7008 143.791 13.3182 145.412 13.3182C146.397 13.3182 147.351 13.4811 148.276 13.8068C149.2 14.1326 150.029 14.6439 150.764 15.3409C151.499 16.0379 152.079 16.9432 152.503 18.0568C152.927 19.1629 153.139 20.5076 153.139 22.0909V23.2955H139.264V20.75H149.81C149.81 19.8561 149.628 19.0644 149.264 18.375C148.901 17.678 148.389 17.1288 147.73 16.7273C147.079 16.3258 146.313 16.125 145.435 16.125C144.48 16.125 143.647 16.3598 142.935 16.8295C142.23 17.2917 141.685 17.8977 141.298 18.6477C140.92 19.3902 140.73 20.197 140.73 21.0682V23.0568C140.73 24.2235 140.935 25.2159 141.344 26.0341C141.76 26.8523 142.34 27.4773 143.082 27.9091C143.825 28.3333 144.692 28.5455 145.685 28.5455C146.329 28.5455 146.916 28.4545 147.446 28.2727C147.976 28.0833 148.435 27.803 148.821 27.4318C149.207 27.0606 149.503 26.6023 149.707 26.0568L152.923 26.6364C152.666 27.5833 152.204 28.4129 151.537 29.125C150.878 29.8295 150.048 30.3788 149.048 30.7727C148.056 31.1591 146.923 31.3523 145.651 31.3523Z" fill="black"/>
</svg>
