<svg width="18" height="21" viewBox="0 0 18 21" fill="none" xmlns="http://www.w3.org/2000/svg">
<path d="M17.62 6.7C16.58 2.07 12.54 0 8.99999 0C8.99999 0 8.99999 0 8.98999 0C5.45999 0 1.42999 2.07 0.379994 6.69C-0.800006 11.85 2.35999 16.22 5.21999 18.98C6.27999 20 7.63999 20.51 8.99999 20.51C10.36 20.51 11.72 20 12.77 18.98C15.63 16.22 18.79 11.86 17.62 6.7ZM12.28 7.53L8.27999 11.53C8.12999 11.68 7.93999 11.75 7.74999 11.75C7.55999 11.75 7.36999 11.68 7.21999 11.53L5.71999 10.03C5.42999 9.74 5.42999 9.26 5.71999 8.97C6.00999 8.68 6.48999 8.68 6.77999 8.97L7.74999 9.94L11.22 6.47C11.51 6.18 11.99 6.18 12.28 6.47C12.57 6.76 12.57 7.24 12.28 7.53Z" fill="#292D32"/>
</svg>
